<svg version="1" xmlns="http://www.w3.org/2000/svg" width="346.667" height="346.667" viewBox="0 0 260.000000 260.000000"><path d="M101.2 15.2c-2 2-1.4 4.2 2.9 10.3 6 8.2 7.7 14.7 8.9 33.7.5 8.9.6 16.5.2 16.9-1.1 1-37.4 7.8-52.5 9.8-7.6 1-14.3 2.3-15 3-.9 1-.6 1.8 1.6 3.6 6.8 5.9 20.7 6.6 35.7 1.7 5.2-1.7 12.3-3.8 15.8-4.6l6.2-1.4-1.7 3c-4.1 7-18.9 24.4-30.9 36.3-20.1 19.9-34 31-56.2 44.9-2.8 1.7-4.2 3.3-4.2 4.7 0 1.9.4 2 3.7 1.4 4.7-.8 16.3-5.5 25.6-10.1 24.1-12.2 50.5-36.8 68.2-63.7 2.1-3.1 4-5.6 4.2-5.3.7.7-1.6 46.8-2.7 53.1-1.4 8.6-1.2 15.3.6 21.4 2.7 9.1 8.7 12.8 13 8 2.2-2.4 2.2-5.9.9-55.9l-.8-29.5 26.9 27c27.1 27.2 36.1 35.1 44.4 38.8 7.8 3.5 24.7 3.4 52.3-.5 8.2-1.1 10.7-2.9 7.4-5.3-.9-.7-7.4-2.7-14.4-4.5-35.3-9-58.6-20.1-87.3-41.3-13.8-10.2-29-22.9-29-24.3 0-.6 1.5-1.4 3.3-1.8 6.3-1.1 27.4-3.6 43.1-5.1 16.5-1.5 22.8-3.3 23.4-6.7.9-5-12.8-10.5-23.7-9.5-3.3.3-14.6 2.7-25 5.3-10.5 2.7-19.3 4.5-19.7 4.1-1.3-1.3 2.5-31.1 4.7-37.4 1.4-3.8 1.9-7 1.5-8.6-.9-3.6-6.6-7.3-15.9-10.2-8.5-2.7-13.6-3.2-15.5-1.3zM183 193.7c0 2.8 21.7 32 33 44.6 4.7 5.3 10.9 8.8 14.1 8 5.7-1.5 7.1-15.2 2.5-24.2-5.4-10.5-15.7-18.2-34.5-25.8-11.7-4.7-15.1-5.3-15.1-2.6zM33 198.7c-5 10.9-6.4 13.2-13 21.1-7.7 9.3-9.5 13.3-8.5 19.5 1.3 7.4 3.1 9.7 7.9 9.7 5.9 0 17-15.3 21-28.9 2-6.8 2.1-18 .2-22.6-2.2-5.1-4.8-4.6-7.6 1.2zM126.2 196.3c-1.6 1.9.5 7.8 6.6 18.2 6.3 10.9 13 17.5 17.6 17.5 7.2 0 10.9-9.3 7-17.6-2.4-5-9.7-11.2-17.7-14.9-9.2-4.4-12-5-13.5-3.2zM72.5 200c-2 3.2 10.2 29.9 15.7 34.5 6.3 5.3 11.9 3.7 14.7-4.1 3.2-9.3-4-19.6-20-28.4-5.6-3-9.3-3.8-10.4-2z"/></svg>